<svg width="50" height="50" viewBox="0 0 50 50" fill="none" xmlns="http://www.w3.org/2000/svg">
<rect width="50" height="50" rx="20" fill="white"/>
<path d="M11.0715 13.9286C15.0715 10.2143 21.7857 9.52381 24.6429 9.64286C32.0715 9.64286 37.7381 12.5 39.6429 13.9286C41.6429 8.21426 47.1429 7.97619 49.6429 8.57145C41.3572 10.5714 40.9524 14.881 41.7857 16.7857C43.8096 19.5238 47 27 43.5715 35C40.1429 43 29.5238 44.5238 24.6429 44.2857C21.1905 44.4048 12.7857 42.7143 6.78575 35C0.785749 27.2857 5.00003 19.1667 7.85718 16.0715C8.42861 11.7857 3.09527 9.28574 0.357178 8.57145C6.07146 7.14288 9.88099 11.5476 11.0715 13.9286Z" fill="#572A6B" stroke="#572A6B"/>
<path d="M8.57121 20C14.2855 10 21.9045 15.8334 24.9998 20C30.7141 10.2858 38.095 15.9524 41.0712 20C41.4575 20.6914 41.961 21.8975 42.2894 22.8572C43.773 27.5237 43.8186 34.5406 36.4284 38.9286C27.2855 44.3572 17.3807 41.1905 13.5712 38.9286C9.92186 36.9966 4.1435 31.2904 7.22975 22.8572C7.56656 21.9368 8.00895 20.984 8.57121 20Z" fill="white"/>
<path d="M42.2894 22.8572C43.773 27.5237 43.8186 34.5406 36.4284 38.9286C27.2855 44.3572 17.3807 41.1905 13.5712 38.9286C9.92186 36.9966 4.1435 31.2904 7.22975 22.8572C7.56656 21.9368 8.00895 20.984 8.57121 20C14.2855 10 21.9045 15.8334 24.9998 20C30.7141 10.2858 38.095 15.9524 41.0712 20C41.4575 20.6914 41.961 21.8975 42.2894 22.8572ZM42.2894 22.8572C42.251 22.7365 42.3295 22.9746 42.2894 22.8572ZM11.4284 34.2857H38.5712C37.4998 36.0714 33.2855 39.7143 24.9998 40C16.7141 40.2857 12.4998 36.3095 11.4284 34.2857Z" stroke="#572A6B"/>
<path d="M15.7144 38.2143L17.1429 35L19.6429 38.9286L22.1429 34.6428L25.3572 39.2857L27.1429 35L29.2858 38.9286L31.0715 34.6428L33.5715 37.5L34.6429 34.2857" stroke="#572A6B"/>
<path d="M25.3573 31.7857L24.2859 28.5714H26.4287L25.3573 31.7857Z" fill="#572A6B"/>
<path d="M16.0715 27.8571C9.21432 27.8571 8.09527 24.0476 7.85718 22.1428L25.3572 22.1429L42.1429 22.1428C42.1429 24.0476 41.5 27.8571 34.6429 27.8571C27.7857 27.8571 25.5953 24.0477 25.3572 22.1429C25.3572 24.0477 22.9286 27.8571 16.0715 27.8571Z" fill="#DEE223"/>
<path d="M25.3572 22.1429C25.3572 24.0477 22.9286 27.8571 16.0715 27.8571C9.21432 27.8571 8.09527 24.0476 7.85718 22.1428L25.3572 22.1429ZM25.3572 22.1429C25.5953 24.0477 27.7857 27.8571 34.6429 27.8571C41.5 27.8571 42.1429 24.0476 42.1429 22.1428L25.3572 22.1429Z" stroke="#572A6B"/>
</svg>