<svg width="70" height="70" viewBox="0 0 70 70" fill="none" xmlns="http://www.w3.org/2000/svg">
<rect width="70" height="70" rx="20" fill="white"/>
<path d="M15.5 19.5C21.1 14.3 30.5 13.3333 34.5 13.5C44.9 13.5 52.8333 17.5 55.5 19.5C58.3 11.4999 66 11.1666 69.5 12C57.9 14.8 57.3333 20.8333 58.5 23.5C61.3333 27.3333 65.8 37.8 61 49C56.2 60.2 41.3333 62.3333 34.5 62C29.6667 62.1667 17.9 59.8 9.5 49C1.1 38.2 7 26.8333 11 22.5C11.8 16.5 4.33333 13 0.5 12C8.5 9.99999 13.8333 16.1666 15.5 19.5Z" fill="#572A6B" stroke="#572A6B"/>
<path d="M12 28C20 14 30.6667 22.1667 35 28C43 14.4 53.3333 22.3334 57.5 28C58.0409 28.9679 58.7457 30.6565 59.2054 32C61.2825 38.5332 61.3463 48.3569 51 54.5C38.2 62.1 24.3333 57.6667 19 54.5C13.8909 51.7952 5.8012 43.8066 10.122 32C10.5935 30.7115 11.2128 29.3776 12 28Z" fill="white"/>
<path d="M59.2054 32C61.2825 38.5332 61.3463 48.3569 51 54.5C38.2 62.1 24.3333 57.6667 19 54.5C13.8909 51.7952 5.8012 43.8066 10.122 32C10.5935 30.7115 11.2128 29.3775 12 28C20 14 30.6667 22.1667 35 28C43 14.4 53.3333 22.3334 57.5 28C58.0409 28.9679 58.7457 30.6565 59.2054 32ZM59.2054 32C59.1517 31.8311 59.2617 32.1644 59.2054 32ZM16 48H54C52.5 50.5 46.6 55.6 35 56C23.4 56.4 17.5 50.8333 16 48Z" stroke="#572A6B"/>
<path d="M22 53.5L24 49L27.5 54.5L31 48.5L35.5 55L38 49L41 54.5L43.5 48.5L47 52.5L48.5 48" stroke="#572A6B"/>
<path d="M35.5 44.5L34 40H37L35.5 44.5Z" fill="#572A6B"/>
<path d="M22.5 39C12.9 39 11.3333 33.6667 11 31L35.5 31.0001L59 31C59 33.6667 58.1 39 48.5 39C38.9 39 35.8333 33.6668 35.5 31.0001C35.5 33.6668 32.1 39 22.5 39Z" fill="#DEE223"/>
<path d="M35.5 31.0001C35.5 33.6668 32.1 39 22.5 39C12.9 39 11.3333 33.6667 11 31L35.5 31.0001ZM35.5 31.0001C35.8333 33.6668 38.9 39 48.5 39C58.1 39 59 33.6667 59 31L35.5 31.0001Z" stroke="#572A6B"/>
</svg>
