<svg width="94" height="42" viewBox="0 0 94 42" fill="none" xmlns="http://www.w3.org/2000/svg">
<path d="M73 1.61804L77.2393 14.6652L77.3515 15.0106H77.7148H91.4333L80.3348 23.0742L80.0409 23.2877L80.1532 23.6332L84.3924 36.6803L73.2939 28.6168L73 28.4033L72.7061 28.6168L61.6076 36.6803L65.8468 23.6332L65.9591 23.2877L65.6652 23.0742L54.5667 15.0106H68.2852H68.6485L68.7607 14.6652L73 1.61804Z" stroke="#572A6B"/>
<path d="M21 1.61804L25.2393 14.6652L25.3515 15.0106H25.7148H39.4333L28.3348 23.0742L28.0409 23.2877L28.1532 23.6332L32.3924 36.6803L21.2939 28.6168L21 28.4033L20.7061 28.6168L9.60756 36.6803L13.8468 23.6332L13.9591 23.2877L13.6652 23.0742L2.56665 15.0106H16.2852H16.6485L16.7607 14.6652L21 1.61804Z" fill="#FBFF30" stroke="#572A6B"/>
</svg>
