<svg width="50" height="50" fill="none" xmlns="http://www.w3.org/2000/svg"><rect width="50" height="50" rx="20" fill="#fff"/><path d="M11.072 13.929c4-3.715 10.714-4.405 13.57-4.286 7.43 0 13.096 2.857 15 4.286 2-5.715 7.5-5.953 10-5.358-8.285 2-8.69 6.31-7.856 8.215C43.81 19.524 47 27 43.57 35c-3.428 8-14.047 9.524-18.928 9.286-3.453.119-11.857-1.572-17.857-9.286-6-7.714-1.786-15.833 1.071-18.928.572-4.286-4.762-6.786-7.5-7.5 5.714-1.43 9.524 2.976 10.714 5.357z" fill="#572A6B" stroke="#572A6B"/><path d="M8.571 20C14.286 10 21.904 15.833 25 20c5.714-9.714 13.095-4.048 16.071 0 .387.691.89 1.898 1.218 2.857 1.484 4.667 1.53 11.684-5.86 16.072-9.144 5.428-19.048 2.261-22.858 0-3.65-1.932-9.428-7.639-6.341-16.072.337-.92.779-1.873 1.341-2.857z" fill="#fff"/><path d="M42.29 22.857c1.483 4.667 1.529 11.684-5.862 16.072-9.142 5.428-19.047 2.261-22.857 0-3.65-1.932-9.428-7.639-6.341-16.072.337-.92.779-1.873 1.341-2.857C14.286 10 21.904 15.833 25 20c5.714-9.714 13.095-4.048 16.071 0 .387.691.89 1.898 1.218 2.857zm0 0c-.039-.12.04.118 0 0zM11.427 34.286H38.57C37.5 36.07 33.286 39.714 25 40c-8.286.286-12.5-3.69-13.572-5.714z" stroke="#572A6B"/><path d="M15.714 38.214L17.143 35l2.5 3.929 2.5-4.286 3.214 4.643L27.143 35l2.143 3.929 1.785-4.286 2.5 2.857 1.072-3.214" stroke="#572A6B"/><path d="M25.357 31.786l-1.071-3.215h2.143l-1.072 3.215z" fill="#572A6B"/><path d="M16.072 27.857c-6.858 0-7.977-3.81-8.215-5.714h34.286c0 1.905-.643 5.714-7.5 5.714s-9.048-3.81-9.286-5.714c0 1.905-2.428 5.714-9.285 5.714z" fill="#DEE223"/><path d="M25.357 22.143c0 1.905-2.428 5.714-9.285 5.714-6.858 0-7.977-3.81-8.215-5.714h17.5zm0 0c.238 1.905 2.429 5.714 9.286 5.714 6.857 0 7.5-3.81 7.5-5.714H25.357z" stroke="#572A6B"/></svg>