<svg width="70" height="70" fill="none" xmlns="http://www.w3.org/2000/svg"><rect width="70" height="70" rx="20" fill="#fff"/><path d="M15.5 19.5c5.6-5.2 15-6.167 19-6 10.4 0 18.333 4 21 6 2.8-8 10.5-8.333 14-7.5-11.6 2.8-12.167 8.833-11 11.5 2.833 3.833 7.3 14.3 2.5 25.5S41.333 62.333 34.5 62c-4.833.167-16.6-2.2-25-13C1.1 38.2 7 26.833 11 22.5c.8-6-6.667-9.5-10.5-10.5 8-2 13.333 4.167 15 7.5z" fill="#572A6B" stroke="#572A6B"/><path d="M12 28c8-14 18.667-5.833 23 0 8-13.6 18.333-5.667 22.5 0 .54.968 1.246 2.657 1.705 4 2.078 6.533 2.141 16.357-8.205 22.5-12.8 7.6-26.667 3.167-32 0-5.11-2.705-13.199-10.693-8.878-22.5A26.268 26.268 0 0112 28z" fill="#fff"/><path d="M59.205 32c2.078 6.533 2.141 16.357-8.205 22.5-12.8 7.6-26.667 3.167-32 0-5.11-2.705-13.199-10.693-8.878-22.5A26.263 26.263 0 0112 28c8-14 18.667-5.833 23 0 8-13.6 18.333-5.667 22.5 0 .54.968 1.246 2.657 1.705 4zm0 0c-.053-.169.057.164 0 0zM16 48h38c-1.5 2.5-7.4 7.6-19 8-11.6.4-17.5-5.167-19-8z" stroke="#572A6B"/><path d="M22 53.5l2-4.5 3.5 5.5 3.5-6 4.5 6.5 2.5-6 3 5.5 2.5-6 3.5 4 1.5-4.5" stroke="#572A6B"/><path d="M35.5 44.5L34 40h3l-1.5 4.5z" fill="#572A6B"/><path d="M22.5 39c-9.6 0-11.167-5.333-11.5-8h48c0 2.667-.9 8-10.5 8s-12.667-5.333-13-8c0 2.667-3.4 8-13 8z" fill="#DEE223"/><path d="M35.5 31c0 2.667-3.4 8-13 8S11.333 33.667 11 31h24.5zm0 0c.333 2.667 3.4 8 13 8S59 33.667 59 31H35.5z" stroke="#572A6B"/></svg>