<svg width="94" height="42" fill="none" xmlns="http://www.w3.org/2000/svg"><path d="M73 1.618l4.24 13.047.112.346h14.081l-11.098 8.063-.294.214.112.345 4.24 13.047-11.1-8.063-.293-.214-.294.214-11.098 8.063 4.239-13.047.112-.345-.294-.214-11.098-8.063h14.082l.112-.346L73 1.618z" stroke="#572A6B"/><path d="M21 1.618l4.24 13.047.112.346h14.081l-11.098 8.063-.294.214.112.345 4.24 13.047-11.1-8.063-.293-.214-.294.214L9.608 36.68l4.239-13.047.112-.345-.294-.214-11.098-8.063h14.081l.113-.346L21 1.618z" fill="#FBFF30" stroke="#572A6B"/></svg>